<?xml version="1.0" encoding="utf-8"?>
<!-- Generator: Adobe Illustrator 23.0.1, SVG Export Plug-In . SVG Version: 6.00 Build 0)  -->
<svg version="1.1" id="Layer_1" xmlns="http://www.w3.org/2000/svg" xmlns:xlink="http://www.w3.org/1999/xlink" x="0px" y="0px"
	 viewBox="0 0 502.6 183.4" style="enable-background:new 0 0 502.6 183.4;" xml:space="preserve">
<g>
	<g>
		<path d="M68.4,122c-1-0.7-1.8-1-3.1-0.3c-14.7,8.1-29,16.9-41.8,27.9c-2.1,1.8-5,3.8-3.8,7c1.3,3.5,5,2.8,7.9,2.7
			c14-0.2,27.6-3.4,41.1-6.8c21.9-5.6,44.1-9.2,66.4-12.5c23-3.5,46-6.2,69.1-8.7c22.6-2.4,45.4-4.3,68-6.3
			c9.1-0.8,18.2-1.5,27.3-2.2c0.7-0.1,1.3-0.2,2-0.1c0.9,0.1,1.5,0.7,1.7,1.6c0.2,1.2-0.7,1.4-1.5,1.5c-1.5,0.3-2.9,0.6-4.4,0.7
			c-25.4,1.5-50.7,4-75.9,6.5c-25.9,2.5-51.7,5.6-77.5,9.1c-26,3.6-51.8,8.3-77.2,14.7c-12.6,3.2-25.3,5.8-38.3,6.3
			c-2.8,0.1-5.6,0.3-8.3-1.2c-4.8-2.7-5.9-6.6-2.8-11.2c2-2.9,4.8-5.1,7.6-7.2c11.7-9.1,24.1-17.1,37-24.4c1.1-0.6,3-0.7,3.1-2.1
			c0.2-2.5,0.1-5-0.5-7.4c-0.4-1.5-2.4-0.5-3.5-0.3c-10.1,1.9-20.2,3.9-30.3,5.9c-4.4,0.9-8.8,1.8-13.3,2.5c-1.3,0.2-3.7,1.4-4-1.3
			c-0.2-2.1,1.8-2.5,3.5-2.8c9.5-1.8,18.9-3.7,28.4-5.5c5.4-1,10.7-2.2,16.1-3c2.7-0.4,3.7-1.6,3.8-4.2c0.3-8.8,2.4-17.4,4.2-26
			c1-4.9,0.9-5.1-4.2-4c-3.7,0.8-7.5,1.6-11.2,2.4c-1,0.2-2,0.4-2.9,0.5c-1.8,0.1-4.1,0.8-4.7-1.5c-0.8-2.7,1.7-3.2,3.5-3.8
			c6-2,12-4,18-5.8c3.3-1,5.8-2.4,5.9-6.3c0.1-1.6,0.7-2.8,2.4-2.4c1.5,0.3,1.2,1.8,0.9,2.9c-1,2.9-0.2,3,2.4,2.1
			c13.9-5,28.3-8.5,42-14.2c2.9-1.2,5.7-2.6,8.1-4.8c1.9-1.7,1.2-3.1-0.8-3.6c-2.6-0.7-5.2-0.9-7.9-1.1c-17.6-0.8-34.8,1.7-52,4.9
			c-9.6,1.8-19.2,3.8-28.7,6.4c-1.6,0.4-3.2,0.7-3.7-1.2c-0.6-2,1.1-2.4,2.6-2.8c17-4.5,34.3-8,51.8-10.1
			c10.9-1.3,21.8-2.2,32.8-1.3c3,0.2,5.9,0.9,8.5,2.5c3,1.9,3.5,4.1,1.5,7.1c-1.1,1.7-2.8,2.8-4.4,4c-8.7,6-18.9,8.1-28.6,11.5
			c-6.3,2.2-12.7,4.1-19,6c-0.8,0.2-2.2,0.5-2,1.1c0.3,1.2,1.7,0.8,2.6,0.6c10.6-1.8,21.4-3,32.1-3.6c15.4-0.9,30.8-1.7,46.2,0.6
			c11.5,1.7,23,3.3,34.4,5.2c2.5,0.4,4.8,1.4,7.1,2.3c1.8,0.7,3.5,2,3.6,3.8c0.2,4.3,2.7,3.4,5.2,2.7c7.7-2.2,15.6-3.1,23.6-3
			c2.5,0,4.9,0.6,7.4,0.9c2.2,0.3,3.6,1.8,3.7,4.1c0.1,1-0.3,2-1.4,2.4c-1.2,0.5-2.1-0.1-2.3-1.2c-0.6-3.1-3-2.6-5.1-2.7
			c-10.2-0.7-20.1,1.4-30,3.9c-23.5,5.9-47.1,11.8-71,15.4c-22.8,3.4-43.2,12.8-63.5,23c-0.9,0.4-2.3,0.2-2,2.2
			C71.4,123.2,71.3,123.2,68.4,122z M198.3,71C198.3,71,198.3,71,198.3,71c-1.1-0.4-2.2-0.8-3.3-1c-21-3.4-41.9-7.3-63.3-6.6
			c-5,0.2-9.9,0.7-14.9,1c-13.1,0.7-26,2.4-39,4.3c-2.8,0.4-4.4,1.4-4.9,4.4c-1.5,9-3.3,17.9-4.7,26.9c-0.6,4.1-0.3,4.1,3.9,3.3
			c32.9-6.5,65.8-12.8,98.7-19.4c9.6-1.9,19.3-3.7,28.5-7.3c1.4-0.5,3.2-1,3.2-2.7c0-1.7-1.9-2.1-3.2-2.7
			C199,71.2,198.6,71.1,198.3,71z M91.1,104.8c0.2-1.1-0.6-1-1.2-0.8c-6.8,1.3-13.7,2.5-20.5,3.9c-1.9,0.4-2.4,3.7-1.4,6.3
			c1,2.5,2.5,0.9,3.6,0.4c5.9-3,11.7-6.2,17.9-8.6C90.2,105.6,90.8,105.4,91.1,104.8z"/>
		<path d="M241.4,91.1c-2.6,4.1-4.4,8.5-4.7,13.5c-0.1,2-0.2,4,0.2,6c0.7,3.5,2.4,4.2,5.3,2.2c2.2-1.5,4.2-3.1,5.9-5.3
			c2.8-3.6,4.2-3.5,7.1,0.2c1.5,1.9,2.7,0.9,3.7,0c1.7-1.5,3.4-0.9,5.3-1c4.9-0.3,8.9,0.6,13,3.6c2.4,1.8,8.8-1.6,9.3-4.5
			c1.3-9,7.1-15.2,13.2-21c3.1-2.9,7-5.1,10.6-7.4c1.6-1.1,3.5-2.3,5.4-0.5c2.1,2,1.8,4.5,0.5,6.4c-2.4,3.6-5.1,7-8.1,10.1
			c-4.5,4.6-9.3,9-14.6,12.7c-0.9,0.6-2.7,0.9-2.2,2.2c0.4,1,2,1.5,3.3,1.6c6.8,0.6,13.2-0.9,19.3-3.8c4-1.9,8-4.1,11.4-7.1
			c0.9-0.8,1.9-1.4,2.9-1.9c3.6-1.7,5.2-1,6,2.9c0.4,2.1,0.8,3.1,3,1.4c1-0.8,2.4-1.2,3.6-1.6c2.4-0.8,4.6-0.1,5.2,2.3
			c0.7,3,2.5,3.4,4.8,2.7c3.6-1,6.3-0.1,9,2.5c3.3,3.2,6.5,0.4,9.5-1.1c1.1-0.6,2.9-0.9,2.7-2.6c-0.2-1.3-1.9-1.1-2.8-1.6
			c-1.3-0.7-2.8-1.1-4.2-1.7c-1.4-0.5-3.4-1-3.2-2.6c0.2-1.8,2.3-1.6,3.7-1.7c6.4-0.7,12.9-1.4,19.3-1.9c25.8-2.2,51.7-4.1,77.6-4.5
			c9.6-0.2,19.3,0.1,28.9,0.2c0.8,0,1.7,0.1,2.5,0.2c1,0.1,2.2,0.3,2.1,1.6c0,1.4-1.2,1.3-2.2,1.3c-6-0.1-12-0.3-18-0.4
			c-17.6-0.2-35.3,0.5-52.8,1.7c-15.8,1.1-31.5,2.5-47.2,3.7c-1.2,0.1-2.3,0.2-3.5,0.4c-0.4,0.1-0.8,0.5-1.2,0.8
			c0.4,0.3,0.7,0.7,1.1,0.9c0.9,0.5,1.9,0.8,2.7,1.3c1.7,1.2,2,2.7,0.4,4.2c-3.5,3.3-7.5,5.5-12.3,6.1c-1.9,0.2-3.8-0.3-5-1.8
			c-2-2.6-4.4-2.6-7.1-1.9c-3,0.7-5.8,0.3-7-3.1c-1-2.9-2.7-2.4-4.6-1.3c-0.7,0.4-1.4,0.9-2.2,1.2c-3.4,1.7-4.9,1.2-5.4-2.6
			c-0.5-3.2-1.8-2.8-3.5-1.5c-3.4,2.5-6.7,4.9-10.4,6.9c-6.2,3.5-12.9,5.4-20,5.6c-2.1,0-4.6,0.2-6.3-1.2c-2.7-2.2-5-1.7-7.6-0.1
			c-1.4,0.9-2.9,1.6-4.5,2.2c-3.8,1.5-5.7,0.8-7.7-2.9c-0.8-1.5-1.3-2.2-2.7-0.8c-0.2,0.2-0.6,0.6-0.8,0.5c-4.4-1-8.4-0.9-12.2,2.1
			c-0.9,0.7-2.4-1-2.8-2.3c-1.2-3.4-2.8-1.9-4.1-0.3c-1.7,2.1-3.7,3.8-6,5.2c-3.9,2.4-6.6,1.6-8.4-2.5c-1.3-3.1-1.5-6.4-1.1-9.8
			c0.1-0.8,1.3-2-0.2-2.5c-0.9-0.3-1.3,0.8-1.9,1.4c-5.7,6.1-11.6,11.9-18.1,17.1c-1.5,1.2-3.2,2.4-5,3.2c-3.9,1.7-5.5,0.7-5.9-3.4
			c-0.4-3.9-0.5-4-3.8-2c-2.2,1.3-4.2,3-6.4,0c-1-1.4-2.1-0.3-2.9,0.5c-1.6,1.5-3,3.1-4.5,4.6c-0.8,0.8-1.9,1.7-2.9,0.3
			c-0.9-1.1,0.2-1.8,0.8-2.5c2.6-2.6,5.6-4.7,8-7.5c1.4-1.7,3-1.4,3.6,0.9c0.6,2.5,1.6,2.5,3.3,1c0.4-0.3,0.8-0.5,1.3-0.7
			c4.3-1.9,6.4-0.9,6.4,3.7c0,3.2,1.3,3,3.2,1.8c3.8-2.1,6.8-5.3,10-8.1c6.8-6.1,13-12.8,18.8-19.8c0.5-0.6,1.2-1.2,1.7-1.8
			c0.8-1,1.7-1.9,2.9-1C242.7,89.2,241.7,90.2,241.4,91.1z M290.2,102c-0.1,0.3-0.9,1.1,0,1.8c0.9,0.7,1.6-0.2,2.2-0.6
			c8-5.8,14.7-12.8,20.9-20.4c0.2-0.2,0.4-0.5,0.5-0.8c0.1-0.8,0.3-1.8-0.4-2.3c-0.5-0.4-1.2,0-1.8,0.3
			C302.5,85.3,294.8,91.9,290.2,102z"/>
		<path d="M160.4,53.8c-0.1-6.3,2.6-9.6,7.2-11.6c2-0.9,4-2.1,5.8,0.2c1.7,2.2,1.1,4.3-0.7,6.3c-0.5,0.5-1.7,0.9-1,1.8
			c0.2,0.3,1.5-0.2,2.3-0.4c7-2.2,13.7-5,20.3-8.2c1.8-0.9,3.5-2.2,5.2,0.3c1.2,1.7,2.8,0.6,4-0.1c1.6-0.9,2.9-2.2,4.5-3.1
			c2-1.1,3.9-1.3,4.8,1.4c0.2,0.7-0.2,2.1,1.1,1.6c3.6-1.3,7.7,1.5,11.1-1.3c1.2-1,2.6-0.6,3.5,0.7c1.5,2,3.4,1.6,5.4,1.2
			c3.7-0.6,7.1-1.8,10.4-3.5c2.3-1.2,4.7-1.7,6.3,0.5c1.9,2.5,3.5,1.4,5,0c5.9-5.4,11.9-10.7,15.4-18.1c1.8-3.7,4.2-7.1,6.8-10.3
			c0.8-0.9,1.8-1.9,2.9-0.9c0.9,0.7,0.2,1.8-0.3,2.7c-2.3,4.2-4.8,8.4-7.4,12.4c-2.8,4.3-2.8,8.7,0.1,13.1c1.6,2.6,3.8,3.6,6.7,3.2
			c3.4-0.5,6.9-1.2,10.3-1.9c1-0.2,2-0.7,2.5,0.6c0.3,0.9-0.4,1.5-1.3,1.8c-5.2,2.1-10.7,3.3-16.1,1.7c-3.7-1.1-6.1-4.5-6.8-8.5
			c-0.6-3.7-2.2-2.6-3.7-0.8c-2.7,3.2-5.6,6.2-9.2,8.3c-2.2,1.3-4.2,2-5.9-0.7c-1.6-2.6-3.7-1-5.2,0c-3.1,1.9-6.5,2.5-9.9,3.3
			c-2.3,0.5-4.6,0.7-6.7-0.7c-0.7-0.5-1.5-1.2-2.3-0.7c-4,2.6-8.6-0.3-12.6,1.6c-1.1,0.5-2.7,0.3-3-0.9c-0.7-3.2-1.9-2-3.7-1
			c-2.7,1.6-5.4,4.3-8.8,0.8c-1-1.1-2.5,0.4-3.6,0.9c-6.3,3-12.9,5.4-19.5,7.7c-3.8,1.3-7.5,2.7-11.6,2.8c-1.1,0-2.3,1.3-3.3,0.3
			C158.1,54.9,160.4,54,160.4,53.8z M170.7,46c0.3-1.2-0.2-1.6-0.9-1.4c-2.7,0.9-5.1,2.3-6.5,5c-0.4,0.9,0.2,1.4,0.9,1.1
			C166.7,49.5,169.2,48.2,170.7,46z"/>
		<path d="M303.1,37.2c-1.7-2.5-4.1-3.5-7.1-3.9c-1-0.1-0.4-1.9,0.6-2.3c2-0.8,4-1.4,4.7-3.9c0.2-0.9,1.8-1.5,2.4-0.4
			c1.4,2.6,3.4,1.7,5.2,1.2c11.5-2.8,23.1-1.9,34.7-2.1c11-0.2,21.9-1.5,32.7-3.4c1.1-0.2,2.3-0.4,3.4-0.6c0.9-0.2,1.7,0.2,1.9,1.1
			c0.2,0.8-0.5,1.2-1.1,1.4c-1.3,0.4-2.5,0.8-3.8,1.1c-13.4,2.4-27,4-40.6,3.5c-9.4-0.4-18.6,0.4-27.8,2.3c-2.2,0.4-5.6,0.1-3.4,4.3
			C305.5,36.5,304.4,37,303.1,37.2z"/>
		<path d="M204.3,167.8c-0.8-0.4-2.3-1-3.7-1.9c-4.2-2.6-4.3-5.7-0.1-8.4c2.3-1.5,5.2-2.2,3.1-6.1c-1.7-3.1-3.7-4.2-7.7-3.4
			c-2.3,0.5-4.4,1.4-6.3,2.7c-1,0.7-2,0.3-2.5-0.6c-0.5-0.9,0.5-1.5,1.1-1.9c3.4-2.2,7-3.8,11.2-3.5c3.3,0.3,5.7,2.3,6.6,5.3
			c1,3.5,2.5,3.3,5.3,2.1c5.7-2.3,11.4-4.5,17.6-5.3c0.8-0.1,1.6-0.5,2.4-0.5c1,0.1,2.7-0.5,2.7,1.3c0,1.6-1.5,1.4-2.6,1.6
			c-4.8,0.7-9.4,2.1-13.9,3.7c-1.7,0.6-3.4,1.2-5.1,1.9c-5,2.2-5,2.3-2.2,7.1c1.1,1.9,3.8,3.7,1.6,6
			C209.9,170.1,207.3,168.9,204.3,167.8z M205,164.8c1.1,0.2,2.1,1.8,3,0.5c0.6-0.8-0.5-1.8-1-2.6c-0.3-0.6-0.6-1.2-0.8-1.8
			c-0.5-1-0.7-2.4-2.4-1.8c-1.2,0.5-2.7,0.8-3.1,2.2c-0.4,1.4,1.1,1.9,2,2.4C203.6,164.1,204.3,164.5,205,164.8z"/>
	</g>
</g>
</svg>
